<mxfile host="app.diagrams.net" modified="2023-04-12T14:54:03.635Z" agent="5.0 (Windows)" etag="SFhMkO_QYT1tR_7BNrW1" version="21.0.10" type="github">
  <diagram name="第 1 页" id="-R8MxagF0d-Gg6wl0WMD">
    <mxGraphModel dx="1050" dy="538" grid="1" gridSize="10" guides="1" tooltips="1" connect="1" arrows="1" fold="1" page="1" pageScale="1" pageWidth="827" pageHeight="1169" math="0" shadow="0">
      <root>
        <mxCell id="0" />
        <mxCell id="1" parent="0" />
        <mxCell id="XuOykzszCQlvRFe_V58Y-1" value="论坛登录模块" style="rounded=0;whiteSpace=wrap;html=1;" vertex="1" parent="1">
          <mxGeometry x="80" y="40" width="80" height="40" as="geometry" />
        </mxCell>
        <mxCell id="XuOykzszCQlvRFe_V58Y-17" value="论坛精华模块" style="rounded=0;whiteSpace=wrap;html=1;" vertex="1" parent="1">
          <mxGeometry x="580" y="40" width="80" height="40" as="geometry" />
        </mxCell>
        <mxCell id="XuOykzszCQlvRFe_V58Y-18" value="论坛顶部轮播图模块" style="rounded=0;whiteSpace=wrap;html=1;" vertex="1" parent="1">
          <mxGeometry x="480" y="40" width="80" height="40" as="geometry" />
        </mxCell>
        <mxCell id="XuOykzszCQlvRFe_V58Y-19" value="论坛顶部分类区模块" style="rounded=0;whiteSpace=wrap;html=1;" vertex="1" parent="1">
          <mxGeometry x="380" y="40" width="80" height="40" as="geometry" />
        </mxCell>
        <mxCell id="XuOykzszCQlvRFe_V58Y-20" value="论坛介绍区模块" style="rounded=0;whiteSpace=wrap;html=1;" vertex="1" parent="1">
          <mxGeometry x="280" y="40" width="80" height="40" as="geometry" />
        </mxCell>
        <mxCell id="XuOykzszCQlvRFe_V58Y-21" value="论坛最新评论区模块" style="rounded=0;whiteSpace=wrap;html=1;" vertex="1" parent="1">
          <mxGeometry x="180" y="40" width="80" height="40" as="geometry" />
        </mxCell>
        <mxCell id="XuOykzszCQlvRFe_V58Y-22" value="热门推荐模块" style="rounded=0;whiteSpace=wrap;html=1;" vertex="1" parent="1">
          <mxGeometry x="680" y="40" width="80" height="40" as="geometry" />
        </mxCell>
        <mxCell id="XuOykzszCQlvRFe_V58Y-42" value="注册账号模块" style="rounded=0;whiteSpace=wrap;html=1;" vertex="1" parent="1">
          <mxGeometry x="80" y="90" width="80" height="40" as="geometry" />
        </mxCell>
        <mxCell id="XuOykzszCQlvRFe_V58Y-43" value="找回密码模块" style="rounded=0;whiteSpace=wrap;html=1;" vertex="1" parent="1">
          <mxGeometry x="180" y="90" width="80" height="40" as="geometry" />
        </mxCell>
        <mxCell id="XuOykzszCQlvRFe_V58Y-44" value="管理员登陆模块" style="rounded=0;whiteSpace=wrap;html=1;" vertex="1" parent="1">
          <mxGeometry x="280" y="90" width="80" height="40" as="geometry" />
        </mxCell>
        <mxCell id="XuOykzszCQlvRFe_V58Y-45" value="导航栏样式模块" style="rounded=0;whiteSpace=wrap;html=1;" vertex="1" parent="1">
          <mxGeometry x="480" y="90" width="80" height="40" as="geometry" />
        </mxCell>
        <mxCell id="XuOykzszCQlvRFe_V58Y-46" value="帖子搜索栏模块" style="rounded=0;whiteSpace=wrap;html=1;" vertex="1" parent="1">
          <mxGeometry x="380" y="90" width="80" height="40" as="geometry" />
        </mxCell>
        <mxCell id="XuOykzszCQlvRFe_V58Y-47" value="管理员用户评论管理模块" style="rounded=0;whiteSpace=wrap;html=1;" vertex="1" parent="1">
          <mxGeometry x="280" y="240" width="80" height="40" as="geometry" />
        </mxCell>
        <mxCell id="XuOykzszCQlvRFe_V58Y-48" value="用户个人信息模块" style="rounded=0;whiteSpace=wrap;html=1;" vertex="1" parent="1">
          <mxGeometry x="680" y="140" width="80" height="40" as="geometry" />
        </mxCell>
        <mxCell id="XuOykzszCQlvRFe_V58Y-49" value="用户中心模块" style="rounded=0;whiteSpace=wrap;html=1;" vertex="1" parent="1">
          <mxGeometry x="580" y="140" width="80" height="40" as="geometry" />
        </mxCell>
        <mxCell id="XuOykzszCQlvRFe_V58Y-50" value="论坛主页主体模块" style="rounded=0;whiteSpace=wrap;html=1;" vertex="1" parent="1">
          <mxGeometry x="480" y="140" width="80" height="40" as="geometry" />
        </mxCell>
        <mxCell id="XuOykzszCQlvRFe_V58Y-51" value="帖子收藏模块" style="rounded=0;whiteSpace=wrap;html=1;" vertex="1" parent="1">
          <mxGeometry x="380" y="140" width="80" height="40" as="geometry" />
        </mxCell>
        <mxCell id="XuOykzszCQlvRFe_V58Y-52" value="论坛评论模块" style="rounded=0;whiteSpace=wrap;html=1;" vertex="1" parent="1">
          <mxGeometry x="280" y="140" width="80" height="40" as="geometry" />
        </mxCell>
        <mxCell id="XuOykzszCQlvRFe_V58Y-53" value="论坛帖子模块" style="rounded=0;whiteSpace=wrap;html=1;" vertex="1" parent="1">
          <mxGeometry x="180" y="140" width="80" height="40" as="geometry" />
        </mxCell>
        <mxCell id="XuOykzszCQlvRFe_V58Y-54" value="论坛发帖模块" style="rounded=0;whiteSpace=wrap;html=1;" vertex="1" parent="1">
          <mxGeometry x="80" y="140" width="80" height="40" as="geometry" />
        </mxCell>
        <mxCell id="XuOykzszCQlvRFe_V58Y-55" value="收藏模块" style="rounded=0;whiteSpace=wrap;html=1;" vertex="1" parent="1">
          <mxGeometry x="680" y="90" width="80" height="40" as="geometry" />
        </mxCell>
        <mxCell id="XuOykzszCQlvRFe_V58Y-56" value="导航栏加工模块" style="rounded=0;whiteSpace=wrap;html=1;" vertex="1" parent="1">
          <mxGeometry x="580" y="90" width="80" height="40" as="geometry" />
        </mxCell>
        <mxCell id="XuOykzszCQlvRFe_V58Y-57" value="管理员用户帖子管理模块" style="rounded=0;whiteSpace=wrap;html=1;" vertex="1" parent="1">
          <mxGeometry x="180" y="240" width="80" height="40" as="geometry" />
        </mxCell>
        <mxCell id="XuOykzszCQlvRFe_V58Y-58" value="后台信息管理模块" style="rounded=0;whiteSpace=wrap;html=1;" vertex="1" parent="1">
          <mxGeometry x="80" y="240" width="80" height="40" as="geometry" />
        </mxCell>
        <mxCell id="XuOykzszCQlvRFe_V58Y-59" value="用户帖子管理模块" style="rounded=0;whiteSpace=wrap;html=1;" vertex="1" parent="1">
          <mxGeometry x="80" y="190" width="80" height="40" as="geometry" />
        </mxCell>
        <mxCell id="XuOykzszCQlvRFe_V58Y-60" value="管理员用户收藏管理模块" style="rounded=0;whiteSpace=wrap;html=1;" vertex="1" parent="1">
          <mxGeometry x="380" y="240" width="80" height="40" as="geometry" />
        </mxCell>
        <mxCell id="XuOykzszCQlvRFe_V58Y-61" value="项目信息模块" style="rounded=0;whiteSpace=wrap;html=1;" vertex="1" parent="1">
          <mxGeometry x="480" y="240" width="80" height="40" as="geometry" />
        </mxCell>
        <mxCell id="XuOykzszCQlvRFe_V58Y-62" value="浏览量信息统计模块" style="rounded=0;whiteSpace=wrap;html=1;" vertex="1" parent="1">
          <mxGeometry x="580" y="240" width="80" height="40" as="geometry" />
        </mxCell>
        <mxCell id="XuOykzszCQlvRFe_V58Y-63" value="帖子信息统计模块" style="rounded=0;whiteSpace=wrap;html=1;" vertex="1" parent="1">
          <mxGeometry x="680" y="240" width="80" height="40" as="geometry" />
        </mxCell>
        <mxCell id="XuOykzszCQlvRFe_V58Y-64" value="管理员中心模块" style="rounded=0;whiteSpace=wrap;html=1;" vertex="1" parent="1">
          <mxGeometry x="680" y="190" width="80" height="40" as="geometry" />
        </mxCell>
        <mxCell id="XuOykzszCQlvRFe_V58Y-65" value="用户注销模块" style="rounded=0;whiteSpace=wrap;html=1;" vertex="1" parent="1">
          <mxGeometry x="580" y="190" width="80" height="40" as="geometry" />
        </mxCell>
        <mxCell id="XuOykzszCQlvRFe_V58Y-66" value="用户中心左侧隐藏栏模块" style="rounded=0;whiteSpace=wrap;html=1;" vertex="1" parent="1">
          <mxGeometry x="480" y="190" width="80" height="40" as="geometry" />
        </mxCell>
        <mxCell id="XuOykzszCQlvRFe_V58Y-67" value="用户修改信息模块" style="rounded=0;whiteSpace=wrap;html=1;" vertex="1" parent="1">
          <mxGeometry x="380" y="190" width="80" height="40" as="geometry" />
        </mxCell>
        <mxCell id="XuOykzszCQlvRFe_V58Y-68" value="用户收藏管理模块" style="rounded=0;whiteSpace=wrap;html=1;" vertex="1" parent="1">
          <mxGeometry x="180" y="190" width="80" height="40" as="geometry" />
        </mxCell>
        <mxCell id="XuOykzszCQlvRFe_V58Y-69" value="用户手册模块" style="rounded=0;whiteSpace=wrap;html=1;" vertex="1" parent="1">
          <mxGeometry x="280" y="190" width="80" height="40" as="geometry" />
        </mxCell>
        <mxCell id="XuOykzszCQlvRFe_V58Y-71" value="商城登录模块" style="rounded=0;whiteSpace=wrap;html=1;" vertex="1" parent="1">
          <mxGeometry x="80" y="290" width="80" height="40" as="geometry" />
        </mxCell>
        <mxCell id="XuOykzszCQlvRFe_V58Y-72" value="商城主体模块" style="rounded=0;whiteSpace=wrap;html=1;" vertex="1" parent="1">
          <mxGeometry x="680" y="340" width="80" height="40" as="geometry" />
        </mxCell>
        <mxCell id="XuOykzszCQlvRFe_V58Y-73" value="商品信息模块" style="rounded=0;whiteSpace=wrap;html=1;" vertex="1" parent="1">
          <mxGeometry x="580" y="340" width="80" height="40" as="geometry" />
        </mxCell>
        <mxCell id="XuOykzszCQlvRFe_V58Y-74" value="商城退出模块" style="rounded=0;whiteSpace=wrap;html=1;" vertex="1" parent="1">
          <mxGeometry x="480" y="340" width="80" height="40" as="geometry" />
        </mxCell>
        <mxCell id="XuOykzszCQlvRFe_V58Y-75" value="商品购买模块" style="rounded=0;whiteSpace=wrap;html=1;" vertex="1" parent="1">
          <mxGeometry x="380" y="340" width="80" height="40" as="geometry" />
        </mxCell>
        <mxCell id="XuOykzszCQlvRFe_V58Y-76" value="商品搜索模块" style="rounded=0;whiteSpace=wrap;html=1;" vertex="1" parent="1">
          <mxGeometry x="280" y="340" width="80" height="40" as="geometry" />
        </mxCell>
        <mxCell id="XuOykzszCQlvRFe_V58Y-77" value="商品详情模块" style="rounded=0;whiteSpace=wrap;html=1;" vertex="1" parent="1">
          <mxGeometry x="180" y="340" width="80" height="40" as="geometry" />
        </mxCell>
        <mxCell id="XuOykzszCQlvRFe_V58Y-78" value="个人发布商品模块" style="rounded=0;whiteSpace=wrap;html=1;" vertex="1" parent="1">
          <mxGeometry x="80" y="340" width="80" height="40" as="geometry" />
        </mxCell>
        <mxCell id="XuOykzszCQlvRFe_V58Y-79" value="商城已售出商品模块" style="rounded=0;whiteSpace=wrap;html=1;" vertex="1" parent="1">
          <mxGeometry x="680" y="290" width="80" height="40" as="geometry" />
        </mxCell>
        <mxCell id="XuOykzszCQlvRFe_V58Y-80" value="商城已发布商品模块" style="rounded=0;whiteSpace=wrap;html=1;" vertex="1" parent="1">
          <mxGeometry x="580" y="290" width="80" height="40" as="geometry" />
        </mxCell>
        <mxCell id="XuOykzszCQlvRFe_V58Y-81" value="商城已买入商品模块" style="rounded=0;whiteSpace=wrap;html=1;" vertex="1" parent="1">
          <mxGeometry x="480" y="290" width="80" height="40" as="geometry" />
        </mxCell>
        <mxCell id="XuOykzszCQlvRFe_V58Y-82" value="商城个人信息模块" style="rounded=0;whiteSpace=wrap;html=1;" vertex="1" parent="1">
          <mxGeometry x="380" y="290" width="80" height="40" as="geometry" />
        </mxCell>
        <mxCell id="XuOykzszCQlvRFe_V58Y-83" value="商城个人中心模块" style="rounded=0;whiteSpace=wrap;html=1;" vertex="1" parent="1">
          <mxGeometry x="280" y="290" width="80" height="40" as="geometry" />
        </mxCell>
        <mxCell id="XuOykzszCQlvRFe_V58Y-84" value="商城用户注册模块" style="rounded=0;whiteSpace=wrap;html=1;" vertex="1" parent="1">
          <mxGeometry x="180" y="290" width="80" height="40" as="geometry" />
        </mxCell>
      </root>
    </mxGraphModel>
  </diagram>
</mxfile>
